<svg id="visual" viewBox="0 0 900 600" width="900" height="600" xmlns="http://www.w3.org/2000/svg" xmlns:xlink="http://www.w3.org/1999/xlink" version="1.1"><g stroke-width="1" stroke-linejoin="bevel"><path d="M386 300L439 185L320 267Z" fill="#7f9ea3" stroke="#7f9ea3"></path><path d="M439 185L283 211L320 267Z" fill="#8db1ac" stroke="#8db1ac"></path><path d="M439 185L401 129L283 211Z" fill="#85a8a8" stroke="#85a8a8"></path><path d="M386 300L481 195L439 185Z" fill="#72828d" stroke="#72828d"></path><path d="M439 185L508 65L401 129Z" fill="#bfd3b6" stroke="#bfd3b6"></path><path d="M280 399L405 378L386 300Z" fill="#afcbb4" stroke="#afcbb4"></path><path d="M386 300L539 266L481 195Z" fill="#72828d" stroke="#72828d"></path><path d="M405 378L539 266L386 300Z" fill="#97baaf" stroke="#97baaf"></path><path d="M416 0L325 61L401 129Z" fill="#8db1ac" stroke="#8db1ac"></path><path d="M401 129L325 61L283 211Z" fill="#8db1ac" stroke="#8db1ac"></path><path d="M539 266L560 223L481 195Z" fill="#72828d" stroke="#72828d"></path><path d="M481 195L508 65L439 185Z" fill="#8db1ac" stroke="#8db1ac"></path><path d="M283 211L193 289L320 267Z" fill="#97baaf" stroke="#97baaf"></path><path d="M320 267L280 399L386 300Z" fill="#7a959c" stroke="#7a959c"></path><path d="M171 188L193 289L283 211Z" fill="#7f9ea3" stroke="#7f9ea3"></path><path d="M193 289L280 399L320 267Z" fill="#a2c3b2" stroke="#a2c3b2"></path><path d="M610 101L508 65L481 195Z" fill="#8db1ac" stroke="#8db1ac"></path><path d="M417 482L484 409L405 378Z" fill="#cfdbb9" stroke="#cfdbb9"></path><path d="M405 378L484 409L539 266Z" fill="#8db1ac" stroke="#8db1ac"></path><path d="M539 266L632 329L560 223Z" fill="#768b95" stroke="#768b95"></path><path d="M216 68L171 188L283 211Z" fill="#afcbb4" stroke="#afcbb4"></path><path d="M325 61L216 68L283 211Z" fill="#7f9ea3" stroke="#7f9ea3"></path><path d="M508 65L416 0L401 129Z" fill="#97baaf" stroke="#97baaf"></path><path d="M325 61L277 0L216 68Z" fill="#85a8a8" stroke="#85a8a8"></path><path d="M193 289L238 418L280 399Z" fill="#a2c3b2" stroke="#a2c3b2"></path><path d="M280 399L417 482L405 378Z" fill="#8db1ac" stroke="#8db1ac"></path><path d="M416 0L277 0L325 61Z" fill="#8db1ac" stroke="#8db1ac"></path><path d="M84 119L132 188L171 188Z" fill="#7a959c" stroke="#7a959c"></path><path d="M171 188L132 188L193 289Z" fill="#7a959c" stroke="#7a959c"></path><path d="M193 289L129 383L238 418Z" fill="#85a8a8" stroke="#85a8a8"></path><path d="M625 0L496 0L508 65Z" fill="#85a8a8" stroke="#85a8a8"></path><path d="M508 65L496 0L416 0Z" fill="#72828d" stroke="#72828d"></path><path d="M273 469L417 482L280 399Z" fill="#afcbb4" stroke="#afcbb4"></path><path d="M560 223L610 101L481 195Z" fill="#a2c3b2" stroke="#a2c3b2"></path><path d="M661 168L610 101L560 223Z" fill="#a2c3b2" stroke="#a2c3b2"></path><path d="M238 418L273 469L280 399Z" fill="#a2c3b2" stroke="#a2c3b2"></path><path d="M619 397L539 266L484 409Z" fill="#8db1ac" stroke="#8db1ac"></path><path d="M619 397L632 329L539 266Z" fill="#8db1ac" stroke="#8db1ac"></path><path d="M132 188L120 301L193 289Z" fill="#97baaf" stroke="#97baaf"></path><path d="M238 418L209 523L273 469Z" fill="#85a8a8" stroke="#85a8a8"></path><path d="M277 0L233 0L216 68Z" fill="#768b95" stroke="#768b95"></path><path d="M216 68L84 119L171 188Z" fill="#85a8a8" stroke="#85a8a8"></path><path d="M632 329L661 168L560 223Z" fill="#cfdbb9" stroke="#cfdbb9"></path><path d="M514 511L619 397L484 409Z" fill="#bfd3b6" stroke="#bfd3b6"></path><path d="M120 301L129 383L193 289Z" fill="#768b95" stroke="#768b95"></path><path d="M661 168L662 132L610 101Z" fill="#a2c3b2" stroke="#a2c3b2"></path><path d="M610 101L625 0L508 65Z" fill="#85a8a8" stroke="#85a8a8"></path><path d="M394 600L514 511L417 482Z" fill="#7f9ea3" stroke="#7f9ea3"></path><path d="M417 482L514 511L484 409Z" fill="#7f9ea3" stroke="#7f9ea3"></path><path d="M619 397L677 332L632 329Z" fill="#bfd3b6" stroke="#bfd3b6"></path><path d="M632 329L677 332L661 168Z" fill="#8db1ac" stroke="#8db1ac"></path><path d="M769 0L681 0L662 132Z" fill="#cfdbb9" stroke="#cfdbb9"></path><path d="M92 0L84 119L216 68Z" fill="#8db1ac" stroke="#8db1ac"></path><path d="M132 188L0 179L120 301Z" fill="#afcbb4" stroke="#afcbb4"></path><path d="M0 425L112 486L129 383Z" fill="#72828d" stroke="#72828d"></path><path d="M681 0L625 0L610 101Z" fill="#afcbb4" stroke="#afcbb4"></path><path d="M112 486L209 523L238 418Z" fill="#afcbb4" stroke="#afcbb4"></path><path d="M327 600L394 600L417 482Z" fill="#7f9ea3" stroke="#7f9ea3"></path><path d="M233 0L92 0L216 68Z" fill="#85a8a8" stroke="#85a8a8"></path><path d="M514 511L629 505L619 397Z" fill="#72828d" stroke="#72828d"></path><path d="M619 397L731 424L677 332Z" fill="#8db1ac" stroke="#8db1ac"></path><path d="M327 600L417 482L273 469Z" fill="#768b95" stroke="#768b95"></path><path d="M514 511L517 600L629 505Z" fill="#afcbb4" stroke="#afcbb4"></path><path d="M129 383L112 486L238 418Z" fill="#bfd3b6" stroke="#bfd3b6"></path><path d="M209 523L327 600L273 469Z" fill="#7a959c" stroke="#7a959c"></path><path d="M0 306L129 383L120 301Z" fill="#97baaf" stroke="#97baaf"></path><path d="M161 600L327 600L209 523Z" fill="#768b95" stroke="#768b95"></path><path d="M819 178L662 132L661 168Z" fill="#afcbb4" stroke="#afcbb4"></path><path d="M662 132L681 0L610 101Z" fill="#85a8a8" stroke="#85a8a8"></path><path d="M0 126L0 179L84 119Z" fill="#7f9ea3" stroke="#7f9ea3"></path><path d="M84 119L0 179L132 188Z" fill="#72828d" stroke="#72828d"></path><path d="M0 179L0 306L120 301Z" fill="#8db1ac" stroke="#8db1ac"></path><path d="M0 0L0 126L84 119Z" fill="#bfd3b6" stroke="#bfd3b6"></path><path d="M394 600L517 600L514 511Z" fill="#7a959c" stroke="#7a959c"></path><path d="M720 484L731 424L619 397Z" fill="#97baaf" stroke="#97baaf"></path><path d="M677 332L804 319L661 168Z" fill="#768b95" stroke="#768b95"></path><path d="M720 484L619 397L629 505Z" fill="#72828d" stroke="#72828d"></path><path d="M698 600L720 484L629 505Z" fill="#afcbb4" stroke="#afcbb4"></path><path d="M0 306L0 425L129 383Z" fill="#8db1ac" stroke="#8db1ac"></path><path d="M65 600L161 600L112 486Z" fill="#8db1ac" stroke="#8db1ac"></path><path d="M112 486L161 600L209 523Z" fill="#bfd3b6" stroke="#bfd3b6"></path><path d="M760 437L804 319L731 424Z" fill="#85a8a8" stroke="#85a8a8"></path><path d="M731 424L804 319L677 332Z" fill="#afcbb4" stroke="#afcbb4"></path><path d="M720 484L760 437L731 424Z" fill="#72828d" stroke="#72828d"></path><path d="M804 319L819 178L661 168Z" fill="#8db1ac" stroke="#8db1ac"></path><path d="M92 0L0 0L84 119Z" fill="#a2c3b2" stroke="#a2c3b2"></path><path d="M839 108L769 0L662 132Z" fill="#72828d" stroke="#72828d"></path><path d="M517 600L639 600L629 505Z" fill="#768b95" stroke="#768b95"></path><path d="M720 484L829 532L760 437Z" fill="#cfdbb9" stroke="#cfdbb9"></path><path d="M900 176L839 108L819 178Z" fill="#72828d" stroke="#72828d"></path><path d="M819 178L839 108L662 132Z" fill="#768b95" stroke="#768b95"></path><path d="M0 425L0 523L112 486Z" fill="#97baaf" stroke="#97baaf"></path><path d="M0 523L65 600L112 486Z" fill="#85a8a8" stroke="#85a8a8"></path><path d="M639 600L698 600L629 505Z" fill="#7a959c" stroke="#7a959c"></path><path d="M900 312L819 178L804 319Z" fill="#768b95" stroke="#768b95"></path><path d="M900 312L900 176L819 178Z" fill="#768b95" stroke="#768b95"></path><path d="M839 108L900 0L769 0Z" fill="#afcbb4" stroke="#afcbb4"></path><path d="M900 312L804 319L900 410Z" fill="#cfdbb9" stroke="#cfdbb9"></path><path d="M900 410L804 319L760 437Z" fill="#85a8a8" stroke="#85a8a8"></path><path d="M0 523L0 600L65 600Z" fill="#7f9ea3" stroke="#7f9ea3"></path><path d="M900 176L900 105L839 108Z" fill="#85a8a8" stroke="#85a8a8"></path><path d="M804 600L829 532L720 484Z" fill="#85a8a8" stroke="#85a8a8"></path><path d="M829 532L900 410L760 437Z" fill="#72828d" stroke="#72828d"></path><path d="M698 600L804 600L720 484Z" fill="#a2c3b2" stroke="#a2c3b2"></path><path d="M829 532L900 538L900 410Z" fill="#85a8a8" stroke="#85a8a8"></path><path d="M900 105L900 0L839 108Z" fill="#768b95" stroke="#768b95"></path><path d="M900 600L900 538L829 532Z" fill="#8db1ac" stroke="#8db1ac"></path><path d="M804 600L900 600L829 532Z" fill="#7f9ea3" stroke="#7f9ea3"></path></g></svg>